<mxfile host="app.diagrams.net" modified="2020-06-07T21:57:54.137Z" agent="5.0 (Macintosh; Intel Mac OS X 10_15_5) AppleWebKit/605.1.15 (KHTML, like Gecko) Version/13.1.1 Safari/605.1.15" etag="0UO_6KbZfgEBfnXxrG0D" version="13.1.14" type="github">
  <diagram id="gKkAc_-PEKlAlcaDxTAI" name="PÃ¡gina-1">
    <mxGraphModel dx="946" dy="662" grid="1" gridSize="10" guides="1" tooltips="1" connect="1" arrows="1" fold="1" page="1" pageScale="1" pageWidth="827" pageHeight="1169" math="0" shadow="0">
      <root>
        <mxCell id="0" />
        <mxCell id="1" parent="0" />
        <mxCell id="v7rXRKebD9OKGXwEpc1r-9" style="edgeStyle=orthogonalEdgeStyle;rounded=0;orthogonalLoop=1;jettySize=auto;html=1;exitX=0.5;exitY=1;exitDx=0;exitDy=0;entryX=0.5;entryY=0;entryDx=0;entryDy=0;" parent="1" source="v7rXRKebD9OKGXwEpc1r-1" target="v7rXRKebD9OKGXwEpc1r-3" edge="1">
          <mxGeometry relative="1" as="geometry" />
        </mxCell>
        <mxCell id="v7rXRKebD9OKGXwEpc1r-1" value="I" style="ellipse;whiteSpace=wrap;html=1;aspect=fixed;fillColor=#fff2cc;strokeColor=#d6b656;" parent="1" vertex="1">
          <mxGeometry x="360" y="40" width="80" height="80" as="geometry" />
        </mxCell>
        <mxCell id="v7rXRKebD9OKGXwEpc1r-8" style="edgeStyle=orthogonalEdgeStyle;rounded=0;orthogonalLoop=1;jettySize=auto;html=1;exitX=0.5;exitY=1;exitDx=0;exitDy=0;entryX=0.5;entryY=0;entryDx=0;entryDy=0;" parent="1" source="v7rXRKebD9OKGXwEpc1r-3" target="v7rXRKebD9OKGXwEpc1r-4" edge="1">
          <mxGeometry relative="1" as="geometry" />
        </mxCell>
        <mxCell id="v7rXRKebD9OKGXwEpc1r-16" value="" style="edgeStyle=orthogonalEdgeStyle;rounded=0;orthogonalLoop=1;jettySize=auto;html=1;" parent="1" source="v7rXRKebD9OKGXwEpc1r-3" target="v7rXRKebD9OKGXwEpc1r-4" edge="1">
          <mxGeometry relative="1" as="geometry" />
        </mxCell>
        <mxCell id="v7rXRKebD9OKGXwEpc1r-3" value="Lectura de estado del BOTON" style="shape=parallelogram;perimeter=parallelogramPerimeter;whiteSpace=wrap;html=1;fillColor=#f5f5f5;strokeColor=#666666;fontColor=#333333;" parent="1" vertex="1">
          <mxGeometry x="315" y="160" width="170" height="60" as="geometry" />
        </mxCell>
        <mxCell id="v7rXRKebD9OKGXwEpc1r-5" style="edgeStyle=orthogonalEdgeStyle;rounded=0;orthogonalLoop=1;jettySize=auto;html=1;exitX=0.5;exitY=1;exitDx=0;exitDy=0;entryX=0.5;entryY=0;entryDx=0;entryDy=0;" parent="1" source="v7rXRKebD9OKGXwEpc1r-4" edge="1" target="v7rXRKebD9OKGXwEpc1r-6">
          <mxGeometry relative="1" as="geometry">
            <mxPoint x="400" y="410" as="targetPoint" />
          </mxGeometry>
        </mxCell>
        <mxCell id="v7rXRKebD9OKGXwEpc1r-10" value="SI&lt;br&gt;" style="edgeLabel;html=1;align=center;verticalAlign=middle;resizable=0;points=[];" parent="v7rXRKebD9OKGXwEpc1r-5" vertex="1" connectable="0">
          <mxGeometry x="-0.2667" y="-1" relative="1" as="geometry">
            <mxPoint as="offset" />
          </mxGeometry>
        </mxCell>
        <mxCell id="f3GVQNMk0dziEM8bJXB8-4" style="edgeStyle=orthogonalEdgeStyle;rounded=0;orthogonalLoop=1;jettySize=auto;html=1;exitX=0;exitY=0.5;exitDx=0;exitDy=0;" edge="1" parent="1" source="v7rXRKebD9OKGXwEpc1r-4">
          <mxGeometry relative="1" as="geometry">
            <mxPoint x="400" y="140" as="targetPoint" />
            <Array as="points">
              <mxPoint x="280" y="310" />
              <mxPoint x="280" y="140" />
            </Array>
          </mxGeometry>
        </mxCell>
        <mxCell id="f3GVQNMk0dziEM8bJXB8-5" value="NO&lt;br&gt;" style="edgeLabel;html=1;align=center;verticalAlign=middle;resizable=0;points=[];" vertex="1" connectable="0" parent="f3GVQNMk0dziEM8bJXB8-4">
          <mxGeometry x="-0.8324" y="-3" relative="1" as="geometry">
            <mxPoint as="offset" />
          </mxGeometry>
        </mxCell>
        <mxCell id="v7rXRKebD9OKGXwEpc1r-4" value="BOTON presionado?" style="rhombus;whiteSpace=wrap;html=1;fillColor=#f5f5f5;strokeColor=#666666;fontColor=#333333;" parent="1" vertex="1">
          <mxGeometry x="317.5" y="270" width="165" height="80" as="geometry" />
        </mxCell>
        <mxCell id="f3GVQNMk0dziEM8bJXB8-9" style="edgeStyle=orthogonalEdgeStyle;rounded=0;orthogonalLoop=1;jettySize=auto;html=1;exitX=0.5;exitY=1;exitDx=0;exitDy=0;entryX=0.5;entryY=0;entryDx=0;entryDy=0;" edge="1" parent="1" source="v7rXRKebD9OKGXwEpc1r-6" target="f3GVQNMk0dziEM8bJXB8-8">
          <mxGeometry relative="1" as="geometry" />
        </mxCell>
        <mxCell id="v7rXRKebD9OKGXwEpc1r-6" value="Encender LED&lt;br&gt;" style="rounded=0;whiteSpace=wrap;html=1;fillColor=#d5e8d4;strokeColor=#82b366;" parent="1" vertex="1">
          <mxGeometry x="340" y="390" width="120" height="50" as="geometry" />
        </mxCell>
        <mxCell id="f3GVQNMk0dziEM8bJXB8-12" style="edgeStyle=orthogonalEdgeStyle;rounded=0;orthogonalLoop=1;jettySize=auto;html=1;exitX=0.5;exitY=0;exitDx=0;exitDy=0;" edge="1" parent="1" source="v7rXRKebD9OKGXwEpc1r-7">
          <mxGeometry relative="1" as="geometry">
            <mxPoint x="400" y="139" as="targetPoint" />
            <Array as="points">
              <mxPoint x="580" y="139" />
            </Array>
          </mxGeometry>
        </mxCell>
        <mxCell id="v7rXRKebD9OKGXwEpc1r-7" value="Apagar LED&lt;br&gt;" style="rounded=0;whiteSpace=wrap;html=1;fillColor=#f8cecc;strokeColor=#b85450;" parent="1" vertex="1">
          <mxGeometry x="520" y="570" width="120" height="60" as="geometry" />
        </mxCell>
        <mxCell id="f3GVQNMk0dziEM8bJXB8-6" value="SI" style="edgeStyle=orthogonalEdgeStyle;rounded=0;orthogonalLoop=1;jettySize=auto;html=1;exitX=1;exitY=0.5;exitDx=0;exitDy=0;entryX=0;entryY=0.5;entryDx=0;entryDy=0;" edge="1" parent="1" source="f3GVQNMk0dziEM8bJXB8-1" target="v7rXRKebD9OKGXwEpc1r-7">
          <mxGeometry relative="1" as="geometry" />
        </mxCell>
        <mxCell id="f3GVQNMk0dziEM8bJXB8-11" style="edgeStyle=orthogonalEdgeStyle;rounded=0;orthogonalLoop=1;jettySize=auto;html=1;exitX=0;exitY=0.5;exitDx=0;exitDy=0;" edge="1" parent="1" source="f3GVQNMk0dziEM8bJXB8-1">
          <mxGeometry relative="1" as="geometry">
            <mxPoint x="400" y="460" as="targetPoint" />
            <Array as="points">
              <mxPoint x="280" y="600" />
              <mxPoint x="280" y="460" />
            </Array>
          </mxGeometry>
        </mxCell>
        <mxCell id="f3GVQNMk0dziEM8bJXB8-13" value="NO&lt;br&gt;" style="edgeLabel;html=1;align=center;verticalAlign=middle;resizable=0;points=[];" vertex="1" connectable="0" parent="f3GVQNMk0dziEM8bJXB8-11">
          <mxGeometry x="-0.9186" y="-3" relative="1" as="geometry">
            <mxPoint as="offset" />
          </mxGeometry>
        </mxCell>
        <mxCell id="f3GVQNMk0dziEM8bJXB8-1" value="se dejo de presionar el BOTON?" style="rhombus;whiteSpace=wrap;html=1;fillColor=#f5f5f5;strokeColor=#666666;fontColor=#333333;" vertex="1" parent="1">
          <mxGeometry x="315" y="560" width="170" height="80" as="geometry" />
        </mxCell>
        <mxCell id="f3GVQNMk0dziEM8bJXB8-10" style="edgeStyle=orthogonalEdgeStyle;rounded=0;orthogonalLoop=1;jettySize=auto;html=1;exitX=0.5;exitY=1;exitDx=0;exitDy=0;entryX=0.5;entryY=0;entryDx=0;entryDy=0;" edge="1" parent="1" source="f3GVQNMk0dziEM8bJXB8-8" target="f3GVQNMk0dziEM8bJXB8-1">
          <mxGeometry relative="1" as="geometry" />
        </mxCell>
        <mxCell id="f3GVQNMk0dziEM8bJXB8-8" value="Lectura de estado del BOTON" style="shape=parallelogram;perimeter=parallelogramPerimeter;whiteSpace=wrap;html=1;fillColor=#f5f5f5;strokeColor=#666666;fontColor=#333333;" vertex="1" parent="1">
          <mxGeometry x="315" y="480" width="170" height="60" as="geometry" />
        </mxCell>
      </root>
    </mxGraphModel>
  </diagram>
</mxfile>
